ISO-10303-21;
HEADER;
FILE_DESCRIPTION(('KiCad electronic assembly'),'2;1');
FILE_NAME('Spacer.step','2026-04-27T13:48:23',('Pcbnew'),('Kicad'),
  'Open CASCADE STEP processor 7.9','KiCad to STEP converter','Unknown'
  );
FILE_SCHEMA(('AUTOMOTIVE_DESIGN { 1 0 10303 214 1 1 1 1 }'));
ENDSEC;
DATA;
#1 = APPLICATION_PROTOCOL_DEFINITION('international standard',
  'automotive_design',2000,#2);
#2 = APPLICATION_CONTEXT(
  'core data for automotive mechanical design processes');
#3 = SHAPE_DEFINITION_REPRESENTATION(#4,#10);
#4 = PRODUCT_DEFINITION_SHAPE('','',#5);
#5 = PRODUCT_DEFINITION('design','',#6,#9);
#6 = PRODUCT_DEFINITION_FORMATION('','',#7);
#7 = PRODUCT('Spacer 1','Spacer 1','',(#8));
#8 = PRODUCT_CONTEXT('',#2,'mechanical');
#9 = PRODUCT_DEFINITION_CONTEXT('part definition',#2,'design');
#10 = SHAPE_REPRESENTATION('',(#11,#15,#19),#23);
#11 = AXIS2_PLACEMENT_3D('',#12,#13,#14);
#12 = CARTESIAN_POINT('',(0.,0.,0.));
#13 = DIRECTION('',(0.,0.,1.));
#14 = DIRECTION('',(1.,0.,-0.));
#15 = AXIS2_PLACEMENT_3D('',#16,#17,#18);
#16 = CARTESIAN_POINT('',(0.,0.,0.));
#17 = DIRECTION('',(0.,0.,1.));
#18 = DIRECTION('',(1.,0.,-0.));
#19 = AXIS2_PLACEMENT_3D('',#20,#21,#22);
#20 = CARTESIAN_POINT('',(0.,0.,0.));
#21 = DIRECTION('',(0.,0.,1.));
#22 = DIRECTION('',(1.,0.,-0.));
#23 = ( GEOMETRIC_REPRESENTATION_CONTEXT(3) 
GLOBAL_UNCERTAINTY_ASSIGNED_CONTEXT((#27)) GLOBAL_UNIT_ASSIGNED_CONTEXT(
(#24,#25,#26)) REPRESENTATION_CONTEXT('Context #1',
  '3D Context with UNIT and UNCERTAINTY') );
#24 = ( LENGTH_UNIT() NAMED_UNIT(*) SI_UNIT(.MILLI.,.METRE.) );
#25 = ( NAMED_UNIT(*) PLANE_ANGLE_UNIT() SI_UNIT($,.RADIAN.) );
#26 = ( NAMED_UNIT(*) SI_UNIT($,.STERADIAN.) SOLID_ANGLE_UNIT() );
#27 = UNCERTAINTY_MEASURE_WITH_UNIT(LENGTH_MEASURE(1.E-07),#24,
  'distance_accuracy_value','confusion accuracy');
#28 = PRODUCT_RELATED_PRODUCT_CATEGORY('part',$,(#7));
#29 = SHAPE_DEFINITION_REPRESENTATION(#30,#36);
#30 = PRODUCT_DEFINITION_SHAPE('','',#31);
#31 = PRODUCT_DEFINITION('design','',#32,#35);
#32 = PRODUCT_DEFINITION_FORMATION('','',#33);
#33 = PRODUCT('spacer_silkscreen','spacer_silkscreen','',(#34));
#34 = PRODUCT_CONTEXT('',#2,'mechanical');
#35 = PRODUCT_DEFINITION_CONTEXT('part definition',#2,'design');
#36 = SHAPE_REPRESENTATION('',(#11,#37,#204,#281,#493),#586);
#37 = SHELL_BASED_SURFACE_MODEL('',(#38));
#38 = OPEN_SHELL('',(#39));
#39 = ADVANCED_FACE('',(#40),#199,.T.);
#40 = FACE_BOUND('',#41,.F.);
#41 = EDGE_LOOP('',(#42,#53,#61,#69,#77,#85,#93,#101,#110,#118,#127,#135
    ,#143,#151,#160,#168,#176,#184,#193));
#42 = ORIENTED_EDGE('',*,*,#43,.T.);
#43 = EDGE_CURVE('',#44,#46,#48,.T.);
#44 = VERTEX_POINT('',#45);
#45 = CARTESIAN_POINT('',(34.656648,77.130008,1.585));
#46 = VERTEX_POINT('',#47);
#47 = CARTESIAN_POINT('',(35.166043,77.120678,1.585));
#48 = CIRCLE('',#49,0.450326844012);
#49 = AXIS2_PLACEMENT_3D('',#50,#51,#52);
#50 = CARTESIAN_POINT('',(34.904545030105,76.754054108009,1.585));
#51 = DIRECTION('',(0.,0.,-1.));
#52 = DIRECTION('',(-0.550482462684,0.834846727416,0.));
#53 = ORIENTED_EDGE('',*,*,#54,.T.);
#54 = EDGE_CURVE('',#46,#55,#57,.T.);
#55 = VERTEX_POINT('',#56);
#56 = CARTESIAN_POINT('',(35.229496,77.055148,1.585));
#57 = LINE('',#58,#59);
#58 = CARTESIAN_POINT('',(35.166043,77.120678,1.585));
#59 = VECTOR('',#60,1.);
#60 = DIRECTION('',(0.695630129574,-0.718400113328,0.));
#61 = ORIENTED_EDGE('',*,*,#62,.T.);
#62 = EDGE_CURVE('',#55,#63,#65,.T.);
#63 = VERTEX_POINT('',#64);
#64 = CARTESIAN_POINT('',(35.287557,76.934701,1.585));
#65 = LINE('',#66,#67);
#66 = CARTESIAN_POINT('',(35.229496,77.055148,1.585));
#67 = VECTOR('',#68,1.);
#68 = DIRECTION('',(0.434228424707,-0.900802794832,0.));
#69 = ORIENTED_EDGE('',*,*,#70,.T.);
#70 = EDGE_CURVE('',#63,#71,#73,.T.);
#71 = VERTEX_POINT('',#72);
#72 = CARTESIAN_POINT('',(35.286798,76.808369,1.585));
#73 = LINE('',#74,#75);
#74 = CARTESIAN_POINT('',(35.287557,76.934701,1.585));
#75 = VECTOR('',#76,1.);
#76 = DIRECTION('',(-6.007870547546E-03,-0.999981952583,0.));
#77 = ORIENTED_EDGE('',*,*,#78,.T.);
#78 = EDGE_CURVE('',#71,#79,#81,.T.);
#79 = VERTEX_POINT('',#80);
#80 = CARTESIAN_POINT('',(35.22874,76.640306,1.585));
#81 = LINE('',#82,#83);
#82 = CARTESIAN_POINT('',(35.286798,76.808369,1.585));
#83 = VECTOR('',#84,1.);
#84 = DIRECTION('',(-0.326519613327,-0.945190426376,0.));
#85 = ORIENTED_EDGE('',*,*,#86,.T.);
#86 = EDGE_CURVE('',#79,#87,#89,.T.);
#87 = VERTEX_POINT('',#88);
#88 = CARTESIAN_POINT('',(34.776017,76.185545,1.585));
#89 = LINE('',#90,#91);
#90 = CARTESIAN_POINT('',(35.22874,76.640306,1.585));
#91 = VECTOR('',#92,1.);
#92 = DIRECTION('',(-0.705517003129,-0.708692992978,0.));
#93 = ORIENTED_EDGE('',*,*,#94,.T.);
#94 = EDGE_CURVE('',#87,#95,#97,.T.);
#95 = VERTEX_POINT('',#96);
#96 = CARTESIAN_POINT('',(35.22863,76.184104,1.585));
#97 = LINE('',#98,#99);
#98 = CARTESIAN_POINT('',(34.776017,76.185545,1.585));
#99 = VECTOR('',#100,1.);
#100 = DIRECTION('',(0.999994931953,-3.183719197072E-03,0.));
#101 = ORIENTED_EDGE('',*,*,#102,.T.);
#102 = EDGE_CURVE('',#95,#103,#105,.T.);
#103 = VERTEX_POINT('',#104);
#104 = CARTESIAN_POINT('',(35.213998,76.035545,1.585));
#105 = CIRCLE('',#106,7.500006711464E-02);
#106 = AXIS2_PLACEMENT_3D('',#107,#108,#109);
#107 = CARTESIAN_POINT('',(35.213998067115,76.110545067115,1.585));
#108 = DIRECTION('',(0.,0.,-1.));
#109 = DIRECTION('',(0.195092263891,0.980784894138,0.));
#110 = ORIENTED_EDGE('',*,*,#111,.T.);
#111 = EDGE_CURVE('',#103,#112,#114,.T.);
#112 = VERTEX_POINT('',#113);
#113 = CARTESIAN_POINT('',(34.580319,76.036986,1.585));
#114 = LINE('',#115,#116);
#115 = CARTESIAN_POINT('',(35.213998,76.035545,1.585));
#116 = VECTOR('',#117,1.);
#117 = DIRECTION('',(-0.999997414422,2.274016140951E-03,0.));
#118 = ORIENTED_EDGE('',*,*,#119,.T.);
#119 = EDGE_CURVE('',#112,#120,#122,.T.);
#120 = VERTEX_POINT('',#121);
#121 = CARTESIAN_POINT('',(34.541918,76.163578,1.585));
#122 = CIRCLE('',#123,7.500021013111E-02);
#123 = AXIS2_PLACEMENT_3D('',#124,#125,#126);
#124 = CARTESIAN_POINT('',(34.594951316704,76.110545002356,1.585));
#125 = DIRECTION('',(0.,0.,-1.));
#126 = DIRECTION('',(-0.195097009436,-0.980783950169,-0.));
#127 = ORIENTED_EDGE('',*,*,#128,.T.);
#128 = EDGE_CURVE('',#120,#129,#131,.T.);
#129 = VERTEX_POINT('',#130);
#130 = CARTESIAN_POINT('',(35.100826,76.722488,1.585));
#131 = LINE('',#132,#133);
#132 = CARTESIAN_POINT('',(34.541918,76.163578,1.585));
#133 = VECTOR('',#134,1.);
#134 = DIRECTION('',(0.70710551603,0.707108046341,0.));
#135 = ORIENTED_EDGE('',*,*,#136,.T.);
#136 = EDGE_CURVE('',#129,#137,#139,.T.);
#137 = VERTEX_POINT('',#138);
#138 = CARTESIAN_POINT('',(35.138998,76.837001,1.585));
#139 = LINE('',#140,#141);
#140 = CARTESIAN_POINT('',(35.100826,76.722488,1.585));
#141 = VECTOR('',#142,1.);
#142 = DIRECTION('',(0.31623522204,0.948680812677,0.));
#143 = ORIENTED_EDGE('',*,*,#144,.T.);
#144 = EDGE_CURVE('',#137,#145,#147,.T.);
#145 = VERTEX_POINT('',#146);
#146 = CARTESIAN_POINT('',(35.138998,76.902364,1.585));
#147 = LINE('',#148,#149);
#148 = CARTESIAN_POINT('',(35.138998,76.837001,1.585));
#149 = VECTOR('',#150,1.);
#150 = DIRECTION('',(0.,1.,0.));
#151 = ORIENTED_EDGE('',*,*,#152,.T.);
#152 = EDGE_CURVE('',#145,#153,#155,.T.);
#153 = VERTEX_POINT('',#154);
#154 = CARTESIAN_POINT('',(35.005817,77.035545,1.585));
#155 = CIRCLE('',#156,0.18686440374);
#156 = AXIS2_PLACEMENT_3D('',#157,#158,#159);
#157 = CARTESIAN_POINT('',(34.958281,76.854828,1.585));
#158 = DIRECTION('',(0.,0.,1.));
#159 = DIRECTION('',(0.967102328658,0.254387668538,-0.));
#160 = ORIENTED_EDGE('',*,*,#161,.T.);
#161 = EDGE_CURVE('',#153,#162,#164,.T.);
#162 = VERTEX_POINT('',#163);
#163 = CARTESIAN_POINT('',(34.803132,77.035545,1.585));
#164 = LINE('',#165,#166);
#165 = CARTESIAN_POINT('',(35.005817,77.035545,1.585));
#166 = VECTOR('',#167,1.);
#167 = DIRECTION('',(-1.,0.,0.));
#168 = ORIENTED_EDGE('',*,*,#169,.T.);
#169 = EDGE_CURVE('',#162,#170,#172,.T.);
#170 = VERTEX_POINT('',#171);
#171 = CARTESIAN_POINT('',(34.734616,77.001287,1.585));
#172 = LINE('',#173,#174);
#173 = CARTESIAN_POINT('',(34.803132,77.035545,1.585));
#174 = VECTOR('',#175,1.);
#175 = DIRECTION('',(-0.894427191,-0.4472135955,0.));
#176 = ORIENTED_EDGE('',*,*,#177,.T.);
#177 = EDGE_CURVE('',#170,#178,#180,.T.);
#178 = VERTEX_POINT('',#179);
#179 = CARTESIAN_POINT('',(34.684238,76.952947,1.585));
#180 = LINE('',#181,#182);
#181 = CARTESIAN_POINT('',(34.734616,77.001287,1.585));
#182 = VECTOR('',#183,1.);
#183 = DIRECTION('',(-0.721551016594,-0.69236127163,0.));
#184 = ORIENTED_EDGE('',*,*,#185,.T.);
#185 = EDGE_CURVE('',#178,#186,#188,.T.);
#186 = VERTEX_POINT('',#187);
#187 = CARTESIAN_POINT('',(34.589537,77.06834,1.585));
#188 = CIRCLE('',#189,7.499996838528E-02);
#189 = AXIS2_PLACEMENT_3D('',#190,#191,#192);
#190 = CARTESIAN_POINT('',(34.64257,77.015307027532,1.585));
#191 = DIRECTION('',(0.,0.,-1.));
#192 = DIRECTION('',(0.555573567524,-0.831467384248,0.));
#193 = ORIENTED_EDGE('',*,*,#194,.T.);
#194 = EDGE_CURVE('',#186,#44,#195,.T.);
#195 = LINE('',#196,#197);
#196 = CARTESIAN_POINT('',(34.589537,77.06834,1.585));
#197 = VECTOR('',#198,1.);
#198 = DIRECTION('',(0.736336089652,0.676615964248,0.));
#199 = PLANE('',#200);
#200 = AXIS2_PLACEMENT_3D('',#201,#202,#203);
#201 = CARTESIAN_POINT('',(0.,0.,1.585));
#202 = DIRECTION('',(0.,0.,1.));
#203 = DIRECTION('',(1.,0.,-0.));
#204 = SHELL_BASED_SURFACE_MODEL('',(#205));
#205 = OPEN_SHELL('',(#206));
#206 = ADVANCED_FACE('',(#207),#276,.T.);
#207 = FACE_BOUND('',#208,.F.);
#208 = EDGE_LOOP('',(#209,#220,#228,#237,#245,#254,#262,#270));
#209 = ORIENTED_EDGE('',*,*,#210,.T.);
#210 = EDGE_CURVE('',#211,#213,#215,.T.);
#211 = VERTEX_POINT('',#212);
#212 = CARTESIAN_POINT('',(32.882301,77.169794,1.585));
#213 = VERTEX_POINT('',#214);
#214 = CARTESIAN_POINT('',(32.999435,77.086828,1.585));
#215 = CIRCLE('',#216,7.499934334576E-02);
#216 = AXIS2_PLACEMENT_3D('',#217,#218,#219);
#217 = CARTESIAN_POINT('',(32.928284482488,77.11054519545,1.585));
#218 = DIRECTION('',(0.,0.,-1.));
#219 = DIRECTION('',(-0.613118467926,0.789990977346,0.));
#220 = ORIENTED_EDGE('',*,*,#221,.T.);
#221 = EDGE_CURVE('',#213,#222,#224,.T.);
#222 = VERTEX_POINT('',#223);
#223 = CARTESIAN_POINT('',(32.660108,76.073402,1.585));
#224 = LINE('',#225,#226);
#225 = CARTESIAN_POINT('',(32.999435,77.086828,1.585));
#226 = VECTOR('',#227,1.);
#227 = DIRECTION('',(-0.317506104109,-0.948256227954,0.));
#228 = ORIENTED_EDGE('',*,*,#229,.T.);
#229 = EDGE_CURVE('',#222,#230,#232,.T.);
#230 = VERTEX_POINT('',#231);
#231 = CARTESIAN_POINT('',(32.529794,76.073403,1.585));
#232 = CIRCLE('',#233,7.500015904106E-02);
#233 = AXIS2_PLACEMENT_3D('',#234,#235,#236);
#234 = CARTESIAN_POINT('',(32.594951285026,76.110545321741,1.585));
#235 = DIRECTION('',(-0.,0.,-1.));
#236 = DIRECTION('',(0.868754357424,-0.495243239688,-0.));
#237 = ORIENTED_EDGE('',*,*,#238,.T.);
#238 = EDGE_CURVE('',#230,#239,#241,.T.);
#239 = VERTEX_POINT('',#240);
#240 = CARTESIAN_POINT('',(32.187207,77.101165,1.585));
#241 = LINE('',#242,#243);
#242 = CARTESIAN_POINT('',(32.529794,76.073403,1.585));
#243 = VECTOR('',#244,1.);
#244 = DIRECTION('',(-0.3162274891,0.948683390356,0.));
#245 = ORIENTED_EDGE('',*,*,#246,.T.);
#246 = EDGE_CURVE('',#239,#247,#249,.T.);
#247 = VERTEX_POINT('',#248);
#248 = CARTESIAN_POINT('',(32.332769,77.134262,1.585));
#249 = CIRCLE('',#250,7.499975943128E-02);
#250 = AXIS2_PLACEMENT_3D('',#251,#252,#253);
#251 = CARTESIAN_POINT('',(32.261617824833,77.110545461739,1.585));
#252 = DIRECTION('',(0.,0.,-1.));
#253 = DIRECTION('',(-0.992147513501,-0.125073224367,-0.));
#254 = ORIENTED_EDGE('',*,*,#255,.T.);
#255 = EDGE_CURVE('',#247,#256,#258,.T.);
#256 = VERTEX_POINT('',#257);
#257 = CARTESIAN_POINT('',(32.594951,76.347716,1.585));
#258 = LINE('',#259,#260);
#259 = CARTESIAN_POINT('',(32.332769,77.134262,1.585));
#260 = VECTOR('',#261,1.);
#261 = DIRECTION('',(0.316227766017,-0.948683298051,0.));
#262 = ORIENTED_EDGE('',*,*,#263,.T.);
#263 = EDGE_CURVE('',#256,#264,#266,.T.);
#264 = VERTEX_POINT('',#265);
#265 = CARTESIAN_POINT('',(32.863127,77.147687,1.585));
#266 = LINE('',#267,#268);
#267 = CARTESIAN_POINT('',(32.594951,76.347716,1.585));
#268 = VECTOR('',#269,1.);
#269 = DIRECTION('',(0.317847619348,0.948141809475,0.));
#270 = ORIENTED_EDGE('',*,*,#271,.T.);
#271 = EDGE_CURVE('',#264,#211,#272,.T.);
#272 = LINE('',#273,#274);
#273 = CARTESIAN_POINT('',(32.863127,77.147687,1.585));
#274 = VECTOR('',#275,1.);
#275 = DIRECTION('',(0.65521540373,0.755442105469,0.));
#276 = PLANE('',#277);
#277 = AXIS2_PLACEMENT_3D('',#278,#279,#280);
#278 = CARTESIAN_POINT('',(0.,0.,1.585));
#279 = DIRECTION('',(0.,0.,1.));
#280 = DIRECTION('',(1.,0.,-0.));
#281 = SHELL_BASED_SURFACE_MODEL('',(#282));
#282 = OPEN_SHELL('',(#283));
#283 = ADVANCED_FACE('',(#284,#386),#488,.T.);
#284 = FACE_BOUND('',#285,.F.);
#285 = EDGE_LOOP('',(#286,#297,#305,#313,#322,#330,#338,#347,#355,#363,
    #372,#380));
#286 = ORIENTED_EDGE('',*,*,#287,.T.);
#287 = EDGE_CURVE('',#288,#290,#292,.T.);
#288 = VERTEX_POINT('',#289);
#289 = CARTESIAN_POINT('',(33.317015,77.126044,1.585));
#290 = VERTEX_POINT('',#291);
#291 = CARTESIAN_POINT('',(33.689853,77.120678,1.585));
#292 = CIRCLE('',#293,0.291788488016);
#293 = AXIS2_PLACEMENT_3D('',#294,#295,#296);
#294 = CARTESIAN_POINT('',(33.50020386911,76.898926497432,1.585));
#295 = DIRECTION('',(0.,0.,-1.));
#296 = DIRECTION('',(-0.627813901623,0.778363478671,0.));
#297 = ORIENTED_EDGE('',*,*,#298,.T.);
#298 = EDGE_CURVE('',#290,#299,#301,.T.);
#299 = VERTEX_POINT('',#300);
#300 = CARTESIAN_POINT('',(33.753306,77.055148,1.585));
#301 = LINE('',#302,#303);
#302 = CARTESIAN_POINT('',(33.689853,77.120678,1.585));
#303 = VECTOR('',#304,1.);
#304 = DIRECTION('',(0.695630129574,-0.718400113328,0.));
#305 = ORIENTED_EDGE('',*,*,#306,.T.);
#306 = EDGE_CURVE('',#299,#307,#309,.T.);
#307 = VERTEX_POINT('',#308);
#308 = CARTESIAN_POINT('',(33.810569,76.938259,1.585));
#309 = LINE('',#310,#311);
#310 = CARTESIAN_POINT('',(33.753306,77.055148,1.585));
#311 = VECTOR('',#312,1.);
#312 = DIRECTION('',(0.439937123831,-0.898028578095,0.));
#313 = ORIENTED_EDGE('',*,*,#314,.T.);
#314 = EDGE_CURVE('',#307,#315,#317,.T.);
#315 = VERTEX_POINT('',#316);
#316 = CARTESIAN_POINT('',(33.80489,76.267481,1.585));
#317 = CIRCLE('',#318,0.967158496826);
#318 = AXIS2_PLACEMENT_3D('',#319,#320,#321);
#319 = CARTESIAN_POINT('',(32.900622706867,76.61054982772,1.585));
#320 = DIRECTION('',(0.,0.,-1.));
#321 = DIRECTION('',(0.940845059128,0.338837091703,0.));
#322 = ORIENTED_EDGE('',*,*,#323,.T.);
#323 = EDGE_CURVE('',#315,#324,#326,.T.);
#324 = VERTEX_POINT('',#325);
#325 = CARTESIAN_POINT('',(33.74794,76.158501,1.585));
#326 = LINE('',#327,#328);
#327 = CARTESIAN_POINT('',(33.80489,76.267481,1.585));
#328 = VECTOR('',#329,1.);
#329 = DIRECTION('',(-0.463146784147,-0.886281589752,0.));
#330 = ORIENTED_EDGE('',*,*,#331,.T.);
#331 = EDGE_CURVE('',#324,#332,#334,.T.);
#332 = VERTEX_POINT('',#333);
#333 = CARTESIAN_POINT('',(33.68241,76.095047,1.585));
#334 = LINE('',#335,#336);
#335 = CARTESIAN_POINT('',(33.74794,76.158501,1.585));
#336 = VECTOR('',#337,1.);
#337 = DIRECTION('',(-0.718394634729,-0.695635787458,0.));
#338 = ORIENTED_EDGE('',*,*,#339,.T.);
#339 = EDGE_CURVE('',#332,#340,#342,.T.);
#340 = VERTEX_POINT('',#341);
#341 = CARTESIAN_POINT('',(33.309571,76.100414,1.585));
#342 = CIRCLE('',#343,0.290998264264);
#343 = AXIS2_PLACEMENT_3D('',#344,#345,#346);
#344 = CARTESIAN_POINT('',(33.499206418158,76.321136445585,1.585));
#345 = DIRECTION('',(-0.,0.,-1.));
#346 = DIRECTION('',(0.629569328552,-0.776944309811,-0.));
#347 = ORIENTED_EDGE('',*,*,#348,.T.);
#348 = EDGE_CURVE('',#340,#349,#351,.T.);
#349 = VERTEX_POINT('',#350);
#350 = CARTESIAN_POINT('',(33.246118,76.165947,1.585));
#351 = LINE('',#352,#353);
#352 = CARTESIAN_POINT('',(33.309571,76.100414,1.585));
#353 = VECTOR('',#354,1.);
#354 = DIRECTION('',(-0.695613693927,0.718416027676,0.));
#355 = ORIENTED_EDGE('',*,*,#356,.T.);
#356 = EDGE_CURVE('',#349,#357,#359,.T.);
#357 = VERTEX_POINT('',#358);
#358 = CARTESIAN_POINT('',(33.188857,76.282832,1.585));
#359 = LINE('',#360,#361);
#360 = CARTESIAN_POINT('',(33.246118,76.165947,1.585));
#361 = VECTOR('',#362,1.);
#362 = DIRECTION('',(-0.439936873317,0.89802870082,0.));
#363 = ORIENTED_EDGE('',*,*,#364,.T.);
#364 = EDGE_CURVE('',#357,#365,#367,.T.);
#365 = VERTEX_POINT('',#366);
#366 = CARTESIAN_POINT('',(33.194536,76.95361,1.585));
#367 = CIRCLE('',#368,0.967158496826);
#368 = AXIS2_PLACEMENT_3D('',#369,#370,#371);
#369 = CARTESIAN_POINT('',(34.098803293133,76.61054117228,1.585));
#370 = DIRECTION('',(0.,0.,-1.));
#371 = DIRECTION('',(-0.940845059128,-0.338837091703,-0.));
#372 = ORIENTED_EDGE('',*,*,#373,.T.);
#373 = EDGE_CURVE('',#365,#374,#376,.T.);
#374 = VERTEX_POINT('',#375);
#375 = CARTESIAN_POINT('',(33.251485,77.062591,1.585));
#376 = LINE('',#377,#378);
#377 = CARTESIAN_POINT('',(33.194536,76.95361,1.585));
#378 = VECTOR('',#379,1.);
#379 = DIRECTION('',(0.463137057879,0.886286672369,0.));
#380 = ORIENTED_EDGE('',*,*,#381,.T.);
#381 = EDGE_CURVE('',#374,#288,#382,.T.);
#382 = LINE('',#383,#384);
#383 = CARTESIAN_POINT('',(33.251485,77.062591,1.585));
#384 = VECTOR('',#385,1.);
#385 = DIRECTION('',(0.718400113328,0.695630129574,0.));
#386 = FACE_BOUND('',#387,.F.);
#387 = EDGE_LOOP('',(#388,#399,#407,#415,#424,#432,#440,#449,#457,#465,
    #474,#482));
#388 = ORIENTED_EDGE('',*,*,#389,.T.);
#389 = EDGE_CURVE('',#390,#392,#394,.T.);
#390 = VERTEX_POINT('',#391);
#391 = CARTESIAN_POINT('',(33.598143,77.001287,1.585));
#392 = VERTEX_POINT('',#393);
#393 = CARTESIAN_POINT('',(33.401283,77.001287,1.585));
#394 = CIRCLE('',#395,0.148516804184);
#395 = AXIS2_PLACEMENT_3D('',#396,#397,#398);
#396 = CARTESIAN_POINT('',(33.499713,76.890072,1.585));
#397 = DIRECTION('',(0.,0.,1.));
#398 = DIRECTION('',(0.662753286006,0.748837820819,-0.));
#399 = ORIENTED_EDGE('',*,*,#400,.T.);
#400 = EDGE_CURVE('',#392,#401,#403,.T.);
#401 = VERTEX_POINT('',#402);
#402 = CARTESIAN_POINT('',(33.370876,76.97088,1.585));
#403 = LINE('',#404,#405);
#404 = CARTESIAN_POINT('',(33.401283,77.001287,1.585));
#405 = VECTOR('',#406,1.);
#406 = DIRECTION('',(-0.707106781186,-0.707106781187,0.));
#407 = ORIENTED_EDGE('',*,*,#408,.T.);
#408 = EDGE_CURVE('',#401,#409,#411,.T.);
#409 = VERTEX_POINT('',#410);
#410 = CARTESIAN_POINT('',(33.332382,76.893893,1.585));
#411 = LINE('',#412,#413);
#412 = CARTESIAN_POINT('',(33.370876,76.97088,1.585));
#413 = VECTOR('',#414,1.);
#414 = DIRECTION('',(-0.447218242642,-0.894424867414,0.));
#415 = ORIENTED_EDGE('',*,*,#416,.T.);
#416 = EDGE_CURVE('',#409,#417,#419,.T.);
#417 = VERTEX_POINT('',#418);
#418 = CARTESIAN_POINT('',(33.332382,76.327198,1.585));
#419 = CIRCLE('',#420,0.815450468383);
#420 = AXIS2_PLACEMENT_3D('',#421,#422,#423);
#421 = CARTESIAN_POINT('',(34.097021562559,76.6105455,1.585));
#422 = DIRECTION('',(0.,0.,1.));
#423 = DIRECTION('',(-0.937689770508,0.347473587895,0.));
#424 = ORIENTED_EDGE('',*,*,#425,.T.);
#425 = EDGE_CURVE('',#417,#426,#428,.T.);
#426 = VERTEX_POINT('',#427);
#427 = CARTESIAN_POINT('',(33.370876,76.250211,1.585));
#428 = LINE('',#429,#430);
#429 = CARTESIAN_POINT('',(33.332382,76.327198,1.585));
#430 = VECTOR('',#431,1.);
#431 = DIRECTION('',(0.447218242641,-0.894424867414,0.));
#432 = ORIENTED_EDGE('',*,*,#433,.T.);
#433 = EDGE_CURVE('',#426,#434,#436,.T.);
#434 = VERTEX_POINT('',#435);
#435 = CARTESIAN_POINT('',(33.401283,76.219803,1.585));
#436 = LINE('',#437,#438);
#437 = CARTESIAN_POINT('',(33.370876,76.250211,1.585));
#438 = VECTOR('',#439,1.);
#439 = DIRECTION('',(0.707095153914,-0.707118408268,0.));
#440 = ORIENTED_EDGE('',*,*,#441,.T.);
#441 = EDGE_CURVE('',#434,#442,#444,.T.);
#442 = VERTEX_POINT('',#443);
#443 = CARTESIAN_POINT('',(33.598142,76.219803,1.585));
#444 = CIRCLE('',#445,0.14851572397);
#445 = AXIS2_PLACEMENT_3D('',#446,#447,#448);
#446 = CARTESIAN_POINT('',(33.4997125,76.331017,1.585));
#447 = DIRECTION('',(0.,0.,1.));
#448 = DIRECTION('',(-0.662754739828,-0.748836534121,0.));
#449 = ORIENTED_EDGE('',*,*,#450,.T.);
#450 = EDGE_CURVE('',#442,#451,#453,.T.);
#451 = VERTEX_POINT('',#452);
#452 = CARTESIAN_POINT('',(33.628549,76.250211,1.585));
#453 = LINE('',#454,#455);
#454 = CARTESIAN_POINT('',(33.598142,76.219803,1.585));
#455 = VECTOR('',#456,1.);
#456 = DIRECTION('',(0.707095153914,0.707118408268,0.));
#457 = ORIENTED_EDGE('',*,*,#458,.T.);
#458 = EDGE_CURVE('',#451,#459,#461,.T.);
#459 = VERTEX_POINT('',#460);
#460 = CARTESIAN_POINT('',(33.667043,76.327198,1.585));
#461 = LINE('',#462,#463);
#462 = CARTESIAN_POINT('',(33.628549,76.250211,1.585));
#463 = VECTOR('',#464,1.);
#464 = DIRECTION('',(0.447218242641,0.894424867414,0.));
#465 = ORIENTED_EDGE('',*,*,#466,.T.);
#466 = EDGE_CURVE('',#459,#467,#469,.T.);
#467 = VERTEX_POINT('',#468);
#468 = CARTESIAN_POINT('',(33.667043,76.893893,1.585));
#469 = CIRCLE('',#470,0.815433004022);
#470 = AXIS2_PLACEMENT_3D('',#471,#472,#473);
#471 = CARTESIAN_POINT('',(32.90242206235,76.6105455,1.585));
#472 = DIRECTION('',(0.,-0.,1.));
#473 = DIRECTION('',(0.937687012763,-0.347481029836,-0.));
#474 = ORIENTED_EDGE('',*,*,#475,.T.);
#475 = EDGE_CURVE('',#467,#476,#478,.T.);
#476 = VERTEX_POINT('',#477);
#477 = CARTESIAN_POINT('',(33.62855,76.97088,1.585));
#478 = LINE('',#479,#480);
#479 = CARTESIAN_POINT('',(33.667043,76.893893,1.585));
#480 = VECTOR('',#481,1.);
#481 = DIRECTION('',(-0.447208948322,0.894429514574,0.));
#482 = ORIENTED_EDGE('',*,*,#483,.T.);
#483 = EDGE_CURVE('',#476,#390,#484,.T.);
#484 = LINE('',#485,#486);
#485 = CARTESIAN_POINT('',(33.62855,76.97088,1.585));
#486 = VECTOR('',#487,1.);
#487 = DIRECTION('',(-0.707106781186,0.707106781187,0.));
#488 = PLANE('',#489);
#489 = AXIS2_PLACEMENT_3D('',#490,#491,#492);
#490 = CARTESIAN_POINT('',(0.,0.,1.585));
#491 = DIRECTION('',(0.,0.,1.));
#492 = DIRECTION('',(1.,0.,-0.));
#493 = SHELL_BASED_SURFACE_MODEL('',(#494));
#494 = OPEN_SHELL('',(#495));
#495 = ADVANCED_FACE('',(#496),#581,.T.);
#496 = FACE_BOUND('',#497,.F.);
#497 = EDGE_LOOP('',(#498,#509,#517,#525,#533,#541,#549,#558,#566,#575)
  );
#498 = ORIENTED_EDGE('',*,*,#499,.T.);
#499 = EDGE_CURVE('',#500,#502,#504,.T.);
#500 = VERTEX_POINT('',#501);
#501 = CARTESIAN_POINT('',(34.10402,76.116496,1.585));
#502 = VERTEX_POINT('',#503);
#503 = CARTESIAN_POINT('',(34.113346,76.211196,1.585));
#504 = CIRCLE('',#505,7.499917215962E-02);
#505 = AXIS2_PLACEMENT_3D('',#506,#507,#508);
#506 = CARTESIAN_POINT('',(34.166378980397,76.158164133968,1.585));
#507 = DIRECTION('',(0.,0.,-1.));
#508 = DIRECTION('',(-0.83146224954,-0.555581252014,-0.));
#509 = ORIENTED_EDGE('',*,*,#510,.T.);
#510 = EDGE_CURVE('',#502,#511,#513,.T.);
#511 = VERTEX_POINT('',#512);
#512 = CARTESIAN_POINT('',(34.172332,76.268145,1.585));
#513 = LINE('',#514,#515);
#514 = CARTESIAN_POINT('',(34.113346,76.211196,1.585));
#515 = VECTOR('',#516,1.);
#516 = DIRECTION('',(0.719419743783,0.694575577065,0.));
#517 = ORIENTED_EDGE('',*,*,#518,.T.);
#518 = EDGE_CURVE('',#511,#519,#521,.T.);
#519 = VERTEX_POINT('',#520);
#520 = CARTESIAN_POINT('',(34.199367,76.279343,1.585));
#521 = LINE('',#522,#523);
#522 = CARTESIAN_POINT('',(34.172332,76.268145,1.585));
#523 = VECTOR('',#524,1.);
#524 = DIRECTION('',(0.923882718053,0.382675741696,0.));
#525 = ORIENTED_EDGE('',*,*,#526,.T.);
#526 = EDGE_CURVE('',#519,#527,#529,.T.);
#527 = VERTEX_POINT('',#528);
#528 = CARTESIAN_POINT('',(34.23737,76.275723,1.585));
#529 = LINE('',#530,#531);
#530 = CARTESIAN_POINT('',(34.199367,76.279343,1.585));
#531 = VECTOR('',#532,1.);
#532 = DIRECTION('',(0.99549382421,-9.482639906426E-02,0.));
#533 = ORIENTED_EDGE('',*,*,#534,.T.);
#534 = EDGE_CURVE('',#527,#535,#537,.T.);
#535 = VERTEX_POINT('',#536);
#536 = CARTESIAN_POINT('',(34.267033,76.258816,1.585));
#537 = LINE('',#538,#539);
#538 = CARTESIAN_POINT('',(34.23737,76.275723,1.585));
#539 = VECTOR('',#540,1.);
#540 = DIRECTION('',(0.868788736496,-0.495182927146,0.));
#541 = ORIENTED_EDGE('',*,*,#542,.T.);
#542 = EDGE_CURVE('',#535,#543,#545,.T.);
#543 = VERTEX_POINT('',#544);
#544 = CARTESIAN_POINT('',(34.323979,76.199831,1.585));
#545 = LINE('',#546,#547);
#546 = CARTESIAN_POINT('',(34.267033,76.258816,1.585));
#547 = VECTOR('',#548,1.);
#548 = DIRECTION('',(0.694562733618,-0.719432143478,0.));
#549 = ORIENTED_EDGE('',*,*,#550,.T.);
#550 = EDGE_CURVE('',#543,#551,#553,.T.);
#551 = VERTEX_POINT('',#552);
#552 = CARTESIAN_POINT('',(34.314651,76.105131,1.585));
#553 = CIRCLE('',#554,7.500097510413E-02);
#554 = AXIS2_PLACEMENT_3D('',#555,#556,#557);
#555 = CARTESIAN_POINT('',(34.26161689739,76.158164293571,1.585));
#556 = DIRECTION('',(0.,0.,-1.));
#557 = DIRECTION('',(0.831483891018,0.555548862818,0.));
#558 = ORIENTED_EDGE('',*,*,#559,.T.);
#559 = EDGE_CURVE('',#551,#560,#562,.T.);
#560 = VERTEX_POINT('',#561);
#561 = CARTESIAN_POINT('',(34.255667,76.048185,1.585));
#562 = LINE('',#563,#564);
#563 = CARTESIAN_POINT('',(34.314651,76.105131,1.585));
#564 = VECTOR('',#565,1.);
#565 = DIRECTION('',(-0.71942625942,-0.694568828308,0.));
#566 = ORIENTED_EDGE('',*,*,#567,.T.);
#567 = EDGE_CURVE('',#560,#568,#570,.T.);
#568 = VERTEX_POINT('',#569);
#569 = CARTESIAN_POINT('',(34.160966,76.057512,1.585));
#570 = CIRCLE('',#571,7.499999203859E-02);
#571 = AXIS2_PLACEMENT_3D('',#572,#573,#574);
#572 = CARTESIAN_POINT('',(34.213998969991,76.110545035928,1.585));
#573 = DIRECTION('',(-0.,0.,-1.));
#574 = DIRECTION('',(0.555573792431,-0.831467233969,-0.));
#575 = ORIENTED_EDGE('',*,*,#576,.T.);
#576 = EDGE_CURVE('',#568,#500,#577,.T.);
#577 = LINE('',#578,#579);
#578 = CARTESIAN_POINT('',(34.160966,76.057512,1.585));
#579 = VECTOR('',#580,1.);
#580 = DIRECTION('',(-0.694568828308,0.71942625942,0.));
#581 = PLANE('',#582);
#582 = AXIS2_PLACEMENT_3D('',#583,#584,#585);
#583 = CARTESIAN_POINT('',(0.,0.,1.585));
#584 = DIRECTION('',(0.,0.,1.));
#585 = DIRECTION('',(1.,0.,-0.));
#586 = ( GEOMETRIC_REPRESENTATION_CONTEXT(3) 
GLOBAL_UNCERTAINTY_ASSIGNED_CONTEXT((#590)) GLOBAL_UNIT_ASSIGNED_CONTEXT
((#587,#588,#589)) REPRESENTATION_CONTEXT('Context #1',
  '3D Context with UNIT and UNCERTAINTY') );
#587 = ( LENGTH_UNIT() NAMED_UNIT(*) SI_UNIT(.MILLI.,.METRE.) );
#588 = ( NAMED_UNIT(*) PLANE_ANGLE_UNIT() SI_UNIT($,.RADIAN.) );
#589 = ( NAMED_UNIT(*) SI_UNIT($,.STERADIAN.) SOLID_ANGLE_UNIT() );
#590 = UNCERTAINTY_MEASURE_WITH_UNIT(LENGTH_MEASURE(1.E-07),#587,
  'distance_accuracy_value','confusion accuracy');
#591 = CONTEXT_DEPENDENT_SHAPE_REPRESENTATION(#592,#594);
#592 = ( REPRESENTATION_RELATIONSHIP('','',#36,#10) 
REPRESENTATION_RELATIONSHIP_WITH_TRANSFORMATION(#593) 
SHAPE_REPRESENTATION_RELATIONSHIP() );
#593 = ITEM_DEFINED_TRANSFORMATION('','',#11,#15);
#594 = PRODUCT_DEFINITION_SHAPE('Placement','Placement of an item',#595
  );
#595 = NEXT_ASSEMBLY_USAGE_OCCURRENCE('1','=>[0:1:1:2]','',#5,#31,$);
#596 = PRODUCT_RELATED_PRODUCT_CATEGORY('part',$,(#33));
#597 = SHAPE_DEFINITION_REPRESENTATION(#598,#604);
#598 = PRODUCT_DEFINITION_SHAPE('','',#599);
#599 = PRODUCT_DEFINITION('design','',#600,#603);
#600 = PRODUCT_DEFINITION_FORMATION('','',#601);
#601 = PRODUCT('spacer_PCB','spacer_PCB','',(#602));
#602 = PRODUCT_CONTEXT('',#2,'mechanical');
#603 = PRODUCT_DEFINITION_CONTEXT('part definition',#2,'design');
#604 = ADVANCED_BREP_SHAPE_REPRESENTATION('',(#11,#605),#876);
#605 = MANIFOLD_SOLID_BREP('',#606);
#606 = CLOSED_SHELL('',(#607,#649,#680,#713,#735,#768,#801,#834,#855));
#607 = ADVANCED_FACE('',(#608),#644,.T.);
#608 = FACE_BOUND('',#609,.T.);
#609 = EDGE_LOOP('',(#610,#620,#629,#637));
#610 = ORIENTED_EDGE('',*,*,#611,.T.);
#611 = EDGE_CURVE('',#612,#614,#616,.T.);
#612 = VERTEX_POINT('',#613);
#613 = CARTESIAN_POINT('',(26.5176,88.4428,0.));
#614 = VERTEX_POINT('',#615);
#615 = CARTESIAN_POINT('',(26.5176,88.4428,1.51));
#616 = LINE('',#617,#618);
#617 = CARTESIAN_POINT('',(26.5176,88.4428,0.));
#618 = VECTOR('',#619,1.);
#619 = DIRECTION('',(0.,0.,1.));
#620 = ORIENTED_EDGE('',*,*,#621,.T.);
#621 = EDGE_CURVE('',#614,#622,#624,.T.);
#622 = VERTEX_POINT('',#623);
#623 = CARTESIAN_POINT('',(41.7576,88.4428,1.51));
#624 = CIRCLE('',#625,7.62);
#625 = AXIS2_PLACEMENT_3D('',#626,#627,#628);
#626 = CARTESIAN_POINT('',(34.1376,88.4428,1.51));
#627 = DIRECTION('',(0.,0.,-1.));
#628 = DIRECTION('',(-1.,0.,0.));
#629 = ORIENTED_EDGE('',*,*,#630,.F.);
#630 = EDGE_CURVE('',#631,#622,#633,.T.);
#631 = VERTEX_POINT('',#632);
#632 = CARTESIAN_POINT('',(41.7576,88.4428,0.));
#633 = LINE('',#634,#635);
#634 = CARTESIAN_POINT('',(41.7576,88.4428,0.));
#635 = VECTOR('',#636,1.);
#636 = DIRECTION('',(0.,0.,1.));
#637 = ORIENTED_EDGE('',*,*,#638,.F.);
#638 = EDGE_CURVE('',#612,#631,#639,.T.);
#639 = CIRCLE('',#640,7.62);
#640 = AXIS2_PLACEMENT_3D('',#641,#642,#643);
#641 = CARTESIAN_POINT('',(34.1376,88.4428,0.));
#642 = DIRECTION('',(0.,0.,-1.));
#643 = DIRECTION('',(-1.,0.,0.));
#644 = CYLINDRICAL_SURFACE('',#645,7.62);
#645 = AXIS2_PLACEMENT_3D('',#646,#647,#648);
#646 = CARTESIAN_POINT('',(34.1376,88.4428,0.));
#647 = DIRECTION('',(0.,0.,-1.));
#648 = DIRECTION('',(-1.,0.,0.));
#649 = ADVANCED_FACE('',(#650),#675,.T.);
#650 = FACE_BOUND('',#651,.T.);
#651 = EDGE_LOOP('',(#652,#653,#661,#669));
#652 = ORIENTED_EDGE('',*,*,#630,.T.);
#653 = ORIENTED_EDGE('',*,*,#654,.T.);
#654 = EDGE_CURVE('',#622,#655,#657,.T.);
#655 = VERTEX_POINT('',#656);
#656 = CARTESIAN_POINT('',(41.7576,60.3504,1.51));
#657 = LINE('',#658,#659);
#658 = CARTESIAN_POINT('',(41.7576,88.4428,1.51));
#659 = VECTOR('',#660,1.);
#660 = DIRECTION('',(0.,-1.,0.));
#661 = ORIENTED_EDGE('',*,*,#662,.F.);
#662 = EDGE_CURVE('',#663,#655,#665,.T.);
#663 = VERTEX_POINT('',#664);
#664 = CARTESIAN_POINT('',(41.7576,60.3504,0.));
#665 = LINE('',#666,#667);
#666 = CARTESIAN_POINT('',(41.7576,60.3504,0.));
#667 = VECTOR('',#668,1.);
#668 = DIRECTION('',(0.,0.,1.));
#669 = ORIENTED_EDGE('',*,*,#670,.F.);
#670 = EDGE_CURVE('',#631,#663,#671,.T.);
#671 = LINE('',#672,#673);
#672 = CARTESIAN_POINT('',(41.7576,88.4428,0.));
#673 = VECTOR('',#674,1.);
#674 = DIRECTION('',(0.,-1.,0.));
#675 = PLANE('',#676);
#676 = AXIS2_PLACEMENT_3D('',#677,#678,#679);
#677 = CARTESIAN_POINT('',(41.7576,88.4428,0.));
#678 = DIRECTION('',(1.,0.,-0.));
#679 = DIRECTION('',(0.,-1.,0.));
#680 = ADVANCED_FACE('',(#681),#708,.T.);
#681 = FACE_BOUND('',#682,.T.);
#682 = EDGE_LOOP('',(#683,#684,#693,#701));
#683 = ORIENTED_EDGE('',*,*,#662,.T.);
#684 = ORIENTED_EDGE('',*,*,#685,.T.);
#685 = EDGE_CURVE('',#655,#686,#688,.T.);
#686 = VERTEX_POINT('',#687);
#687 = CARTESIAN_POINT('',(26.619199,60.3504,1.51));
#688 = CIRCLE('',#689,7.5692005);
#689 = AXIS2_PLACEMENT_3D('',#690,#691,#692);
#690 = CARTESIAN_POINT('',(34.1883995,60.3504005,1.51));
#691 = DIRECTION('',(-0.,0.,-1.));
#692 = DIRECTION('',(1.,-6.605717362517E-08,-0.));
#693 = ORIENTED_EDGE('',*,*,#694,.F.);
#694 = EDGE_CURVE('',#695,#686,#697,.T.);
#695 = VERTEX_POINT('',#696);
#696 = CARTESIAN_POINT('',(26.619199,60.3504,0.));
#697 = LINE('',#698,#699);
#698 = CARTESIAN_POINT('',(26.619199,60.3504,0.));
#699 = VECTOR('',#700,1.);
#700 = DIRECTION('',(0.,0.,1.));
#701 = ORIENTED_EDGE('',*,*,#702,.F.);
#702 = EDGE_CURVE('',#663,#695,#703,.T.);
#703 = CIRCLE('',#704,7.5692005);
#704 = AXIS2_PLACEMENT_3D('',#705,#706,#707);
#705 = CARTESIAN_POINT('',(34.1883995,60.3504005,0.));
#706 = DIRECTION('',(-0.,0.,-1.));
#707 = DIRECTION('',(1.,-6.605717362517E-08,-0.));
#708 = CYLINDRICAL_SURFACE('',#709,7.5692005);
#709 = AXIS2_PLACEMENT_3D('',#710,#711,#712);
#710 = CARTESIAN_POINT('',(34.1883995,60.3504005,0.));
#711 = DIRECTION('',(-0.,0.,-1.));
#712 = DIRECTION('',(1.,-6.605717362517E-08,-0.));
#713 = ADVANCED_FACE('',(#714),#730,.T.);
#714 = FACE_BOUND('',#715,.T.);
#715 = EDGE_LOOP('',(#716,#717,#723,#724));
#716 = ORIENTED_EDGE('',*,*,#694,.T.);
#717 = ORIENTED_EDGE('',*,*,#718,.T.);
#718 = EDGE_CURVE('',#686,#614,#719,.T.);
#719 = LINE('',#720,#721);
#720 = CARTESIAN_POINT('',(26.619199,60.3504,1.51));
#721 = VECTOR('',#722,1.);
#722 = DIRECTION('',(-3.616577279232E-03,0.999993460163,0.));
#723 = ORIENTED_EDGE('',*,*,#611,.F.);
#724 = ORIENTED_EDGE('',*,*,#725,.F.);
#725 = EDGE_CURVE('',#695,#612,#726,.T.);
#726 = LINE('',#727,#728);
#727 = CARTESIAN_POINT('',(26.619199,60.3504,0.));
#728 = VECTOR('',#729,1.);
#729 = DIRECTION('',(-3.616577279232E-03,0.999993460163,0.));
#730 = PLANE('',#731);
#731 = AXIS2_PLACEMENT_3D('',#732,#733,#734);
#732 = CARTESIAN_POINT('',(26.619199,60.3504,0.));
#733 = DIRECTION('',(-0.999993460163,-3.616577279232E-03,0.));
#734 = DIRECTION('',(-3.616577279232E-03,0.999993460163,0.));
#735 = ADVANCED_FACE('',(#736),#763,.F.);
#736 = FACE_BOUND('',#737,.T.);
#737 = EDGE_LOOP('',(#738,#748,#755,#756));
#738 = ORIENTED_EDGE('',*,*,#739,.T.);
#739 = EDGE_CURVE('',#740,#742,#744,.T.);
#740 = VERTEX_POINT('',#741);
#741 = CARTESIAN_POINT('',(35.200496,57.8797,0.));
#742 = VERTEX_POINT('',#743);
#743 = CARTESIAN_POINT('',(35.200496,57.8797,1.51));
#744 = LINE('',#745,#746);
#745 = CARTESIAN_POINT('',(35.200496,57.8797,0.));
#746 = VECTOR('',#747,1.);
#747 = DIRECTION('',(0.,0.,1.));
#748 = ORIENTED_EDGE('',*,*,#749,.T.);
#749 = EDGE_CURVE('',#742,#742,#750,.T.);
#750 = CIRCLE('',#751,1.05);
#751 = AXIS2_PLACEMENT_3D('',#752,#753,#754);
#752 = CARTESIAN_POINT('',(34.150496,57.8797,1.51));
#753 = DIRECTION('',(0.,0.,1.));
#754 = DIRECTION('',(1.,0.,-0.));
#755 = ORIENTED_EDGE('',*,*,#739,.F.);
#756 = ORIENTED_EDGE('',*,*,#757,.F.);
#757 = EDGE_CURVE('',#740,#740,#758,.T.);
#758 = CIRCLE('',#759,1.05);
#759 = AXIS2_PLACEMENT_3D('',#760,#761,#762);
#760 = CARTESIAN_POINT('',(34.150496,57.8797,0.));
#761 = DIRECTION('',(0.,0.,1.));
#762 = DIRECTION('',(1.,0.,-0.));
#763 = CYLINDRICAL_SURFACE('',#764,1.05);
#764 = AXIS2_PLACEMENT_3D('',#765,#766,#767);
#765 = CARTESIAN_POINT('',(34.150496,57.8797,0.));
#766 = DIRECTION('',(-0.,-0.,-1.));
#767 = DIRECTION('',(1.,0.,-0.));
#768 = ADVANCED_FACE('',(#769),#796,.F.);
#769 = FACE_BOUND('',#770,.T.);
#770 = EDGE_LOOP('',(#771,#781,#788,#789));
#771 = ORIENTED_EDGE('',*,*,#772,.T.);
#772 = EDGE_CURVE('',#773,#775,#777,.T.);
#773 = VERTEX_POINT('',#774);
#774 = CARTESIAN_POINT('',(35.6616,65.363164,0.));
#775 = VERTEX_POINT('',#776);
#776 = CARTESIAN_POINT('',(35.6616,65.363164,1.51));
#777 = LINE('',#778,#779);
#778 = CARTESIAN_POINT('',(35.6616,65.363164,0.));
#779 = VECTOR('',#780,1.);
#780 = DIRECTION('',(0.,0.,1.));
#781 = ORIENTED_EDGE('',*,*,#782,.T.);
#782 = EDGE_CURVE('',#775,#775,#783,.T.);
#783 = CIRCLE('',#784,1.511104);
#784 = AXIS2_PLACEMENT_3D('',#785,#786,#787);
#785 = CARTESIAN_POINT('',(34.150496,65.363164,1.51));
#786 = DIRECTION('',(0.,0.,1.));
#787 = DIRECTION('',(1.,0.,-0.));
#788 = ORIENTED_EDGE('',*,*,#772,.F.);
#789 = ORIENTED_EDGE('',*,*,#790,.F.);
#790 = EDGE_CURVE('',#773,#773,#791,.T.);
#791 = CIRCLE('',#792,1.511104);
#792 = AXIS2_PLACEMENT_3D('',#793,#794,#795);
#793 = CARTESIAN_POINT('',(34.150496,65.363164,0.));
#794 = DIRECTION('',(0.,0.,1.));
#795 = DIRECTION('',(1.,0.,-0.));
#796 = CYLINDRICAL_SURFACE('',#797,1.511104);
#797 = AXIS2_PLACEMENT_3D('',#798,#799,#800);
#798 = CARTESIAN_POINT('',(34.150496,65.363164,0.));
#799 = DIRECTION('',(-0.,-0.,-1.));
#800 = DIRECTION('',(1.,0.,-0.));
#801 = ADVANCED_FACE('',(#802),#829,.F.);
#802 = FACE_BOUND('',#803,.T.);
#803 = EDGE_LOOP('',(#804,#814,#821,#822));
#804 = ORIENTED_EDGE('',*,*,#805,.T.);
#805 = EDGE_CURVE('',#806,#808,#810,.T.);
#806 = VERTEX_POINT('',#807);
#807 = CARTESIAN_POINT('',(35.6616,91.9988,0.));
#808 = VERTEX_POINT('',#809);
#809 = CARTESIAN_POINT('',(35.6616,91.9988,1.51));
#810 = LINE('',#811,#812);
#811 = CARTESIAN_POINT('',(35.6616,91.9988,0.));
#812 = VECTOR('',#813,1.);
#813 = DIRECTION('',(0.,0.,1.));
#814 = ORIENTED_EDGE('',*,*,#815,.T.);
#815 = EDGE_CURVE('',#808,#808,#816,.T.);
#816 = CIRCLE('',#817,1.524);
#817 = AXIS2_PLACEMENT_3D('',#818,#819,#820);
#818 = CARTESIAN_POINT('',(34.1376,91.9988,1.51));
#819 = DIRECTION('',(0.,0.,1.));
#820 = DIRECTION('',(1.,0.,-0.));
#821 = ORIENTED_EDGE('',*,*,#805,.F.);
#822 = ORIENTED_EDGE('',*,*,#823,.F.);
#823 = EDGE_CURVE('',#806,#806,#824,.T.);
#824 = CIRCLE('',#825,1.524);
#825 = AXIS2_PLACEMENT_3D('',#826,#827,#828);
#826 = CARTESIAN_POINT('',(34.1376,91.9988,0.));
#827 = DIRECTION('',(0.,0.,1.));
#828 = DIRECTION('',(1.,0.,-0.));
#829 = CYLINDRICAL_SURFACE('',#830,1.524);
#830 = AXIS2_PLACEMENT_3D('',#831,#832,#833);
#831 = CARTESIAN_POINT('',(34.1376,91.9988,0.));
#832 = DIRECTION('',(-0.,-0.,-1.));
#833 = DIRECTION('',(1.,0.,-0.));
#834 = ADVANCED_FACE('',(#835,#841,#844,#847),#850,.F.);
#835 = FACE_BOUND('',#836,.T.);
#836 = EDGE_LOOP('',(#837,#838,#839,#840));
#837 = ORIENTED_EDGE('',*,*,#638,.T.);
#838 = ORIENTED_EDGE('',*,*,#670,.T.);
#839 = ORIENTED_EDGE('',*,*,#702,.T.);
#840 = ORIENTED_EDGE('',*,*,#725,.T.);
#841 = FACE_BOUND('',#842,.T.);
#842 = EDGE_LOOP('',(#843));
#843 = ORIENTED_EDGE('',*,*,#757,.T.);
#844 = FACE_BOUND('',#845,.T.);
#845 = EDGE_LOOP('',(#846));
#846 = ORIENTED_EDGE('',*,*,#790,.T.);
#847 = FACE_BOUND('',#848,.T.);
#848 = EDGE_LOOP('',(#849));
#849 = ORIENTED_EDGE('',*,*,#823,.T.);
#850 = PLANE('',#851);
#851 = AXIS2_PLACEMENT_3D('',#852,#853,#854);
#852 = CARTESIAN_POINT('',(0.,0.,0.));
#853 = DIRECTION('',(0.,0.,1.));
#854 = DIRECTION('',(1.,0.,-0.));
#855 = ADVANCED_FACE('',(#856,#862,#865,#868),#871,.T.);
#856 = FACE_BOUND('',#857,.F.);
#857 = EDGE_LOOP('',(#858,#859,#860,#861));
#858 = ORIENTED_EDGE('',*,*,#621,.T.);
#859 = ORIENTED_EDGE('',*,*,#654,.T.);
#860 = ORIENTED_EDGE('',*,*,#685,.T.);
#861 = ORIENTED_EDGE('',*,*,#718,.T.);
#862 = FACE_BOUND('',#863,.F.);
#863 = EDGE_LOOP('',(#864));
#864 = ORIENTED_EDGE('',*,*,#749,.T.);
#865 = FACE_BOUND('',#866,.F.);
#866 = EDGE_LOOP('',(#867));
#867 = ORIENTED_EDGE('',*,*,#782,.T.);
#868 = FACE_BOUND('',#869,.F.);
#869 = EDGE_LOOP('',(#870));
#870 = ORIENTED_EDGE('',*,*,#815,.T.);
#871 = PLANE('',#872);
#872 = AXIS2_PLACEMENT_3D('',#873,#874,#875);
#873 = CARTESIAN_POINT('',(0.,0.,1.51));
#874 = DIRECTION('',(0.,0.,1.));
#875 = DIRECTION('',(1.,0.,-0.));
#876 = ( GEOMETRIC_REPRESENTATION_CONTEXT(3) 
GLOBAL_UNCERTAINTY_ASSIGNED_CONTEXT((#880)) GLOBAL_UNIT_ASSIGNED_CONTEXT
((#877,#878,#879)) REPRESENTATION_CONTEXT('Context #1',
  '3D Context with UNIT and UNCERTAINTY') );
#877 = ( LENGTH_UNIT() NAMED_UNIT(*) SI_UNIT(.MILLI.,.METRE.) );
#878 = ( NAMED_UNIT(*) PLANE_ANGLE_UNIT() SI_UNIT($,.RADIAN.) );
#879 = ( NAMED_UNIT(*) SI_UNIT($,.STERADIAN.) SOLID_ANGLE_UNIT() );
#880 = UNCERTAINTY_MEASURE_WITH_UNIT(LENGTH_MEASURE(1.E-07),#877,
  'distance_accuracy_value','confusion accuracy');
#881 = CONTEXT_DEPENDENT_SHAPE_REPRESENTATION(#882,#884);
#882 = ( REPRESENTATION_RELATIONSHIP('','',#604,#10) 
REPRESENTATION_RELATIONSHIP_WITH_TRANSFORMATION(#883) 
SHAPE_REPRESENTATION_RELATIONSHIP() );
#883 = ITEM_DEFINED_TRANSFORMATION('','',#11,#19);
#884 = PRODUCT_DEFINITION_SHAPE('Placement','Placement of an item',#885
  );
#885 = NEXT_ASSEMBLY_USAGE_OCCURRENCE('2','=>[0:1:1:3]','',#5,#599,$);
#886 = PRODUCT_RELATED_PRODUCT_CATEGORY('part',$,(#601));
#887 = MECHANICAL_DESIGN_GEOMETRIC_PRESENTATION_REPRESENTATION('',(#888)
  ,#876);
#888 = STYLED_ITEM('color',(#889),#605);
#889 = PRESENTATION_STYLE_ASSIGNMENT((#890));
#890 = SURFACE_STYLE_USAGE(.BOTH.,#891);
#891 = SURFACE_SIDE_STYLE('',(#892));
#892 = SURFACE_STYLE_FILL_AREA(#893);
#893 = FILL_AREA_STYLE('',(#894));
#894 = FILL_AREA_STYLE_COLOUR('',#895);
#895 = COLOUR_RGB('',0.313304153717,0.484529207832,0.410020903123);
#896 = MECHANICAL_DESIGN_GEOMETRIC_PRESENTATION_REPRESENTATION('',(#897,
    #907,#916,#925),#586);
#897 = STYLED_ITEM('color',(#898),#39);
#898 = PRESENTATION_STYLE_ASSIGNMENT((#899));
#899 = SURFACE_STYLE_USAGE(.BOTH.,#900);
#900 = SURFACE_SIDE_STYLE('',(#901,#905));
#901 = SURFACE_STYLE_FILL_AREA(#902);
#902 = FILL_AREA_STYLE('',(#903));
#903 = FILL_AREA_STYLE_COLOUR('',#904);
#904 = DRAUGHTING_PRE_DEFINED_COLOUR('white');
#905 = SURFACE_STYLE_RENDERING_WITH_PROPERTIES(.NORMAL_SHADING.,#904,(
    #906));
#906 = SURFACE_STYLE_TRANSPARENT(0.100000023842);
#907 = STYLED_ITEM('color',(#908),#206);
#908 = PRESENTATION_STYLE_ASSIGNMENT((#909));
#909 = SURFACE_STYLE_USAGE(.BOTH.,#910);
#910 = SURFACE_SIDE_STYLE('',(#911,#914));
#911 = SURFACE_STYLE_FILL_AREA(#912);
#912 = FILL_AREA_STYLE('',(#913));
#913 = FILL_AREA_STYLE_COLOUR('',#904);
#914 = SURFACE_STYLE_RENDERING_WITH_PROPERTIES(.NORMAL_SHADING.,#904,(
    #915));
#915 = SURFACE_STYLE_TRANSPARENT(0.100000023842);
#916 = STYLED_ITEM('color',(#917),#283);
#917 = PRESENTATION_STYLE_ASSIGNMENT((#918));
#918 = SURFACE_STYLE_USAGE(.BOTH.,#919);
#919 = SURFACE_SIDE_STYLE('',(#920,#923));
#920 = SURFACE_STYLE_FILL_AREA(#921);
#921 = FILL_AREA_STYLE('',(#922));
#922 = FILL_AREA_STYLE_COLOUR('',#904);
#923 = SURFACE_STYLE_RENDERING_WITH_PROPERTIES(.NORMAL_SHADING.,#904,(
    #924));
#924 = SURFACE_STYLE_TRANSPARENT(0.100000023842);
#925 = STYLED_ITEM('color',(#926),#495);
#926 = PRESENTATION_STYLE_ASSIGNMENT((#927));
#927 = SURFACE_STYLE_USAGE(.BOTH.,#928);
#928 = SURFACE_SIDE_STYLE('',(#929,#932));
#929 = SURFACE_STYLE_FILL_AREA(#930);
#930 = FILL_AREA_STYLE('',(#931));
#931 = FILL_AREA_STYLE_COLOUR('',#904);
#932 = SURFACE_STYLE_RENDERING_WITH_PROPERTIES(.NORMAL_SHADING.,#904,(
    #933));
#933 = SURFACE_STYLE_TRANSPARENT(0.100000023842);
ENDSEC;
END-ISO-10303-21;
